<svg xmlns="http://www.w3.org/2000/svg" fill="none" viewBox="0 0 56 56"><defs><linearGradient id="sw-panel" x1="0%" x2="100%" y1="0%" y2="100%"><stop offset="0%" stop-color="#3b1278"/><stop offset="100%" stop-color="#1e0a47"/></linearGradient><linearGradient id="sw-shield" x1="10%" x2="90%" y1="10%" y2="90%"><stop offset="0%" stop-color="#a78bfa"/><stop offset="50%" stop-color="#7c3aed"/><stop offset="100%" stop-color="#5b21b6"/></linearGradient><linearGradient id="sw-coin" x1="0%" x2="100%" y1="0%" y2="100%"><stop offset="0%" stop-color="#c4b5fd"/><stop offset="100%" stop-color="#8b5cf6"/></linearGradient></defs><rect width="50" height="50" x="3" y="3" fill="url(#sw-panel)" rx="15"/><path fill="url(#sw-shield)" d="M28 10 L38.5 14.5 C39.5 14.9 40 15.8 40 16.8 L40 27.5 C40 33.8 34.8 39.2 28.8 41.5 C28.3 41.7 27.7 41.7 27.2 41.5 C21.2 39.2 16 33.8 16 27.5 L16 16.8 C16 15.8 16.5 14.9 17.5 14.5 Z"/><rect width="12" height="4" x="22" y="24.5" fill="rgba(255,255,255,0.9)" rx="2"/><circle cx="34.5" cy="26.5" r="3.5" fill="url(#sw-coin)"/><circle cx="34.5" cy="26.5" r="3.5" fill="none" stroke="rgba(255,255,255,0.5)" stroke-width=".8"/></svg>